<svg width="24" height="25" viewBox="0 0 24 25" fill="none" xmlns="http://www.w3.org/2000/svg">
<g clip-path="url(#clip0_929_2358)">
<path d="M18.3159 6.11025H5.68433V18.7418H18.3159V6.11025Z" fill="white"/>
<path d="M18.3157 24.426L23.9999 18.7418H18.3157V24.426Z" fill="#EA4335"/>
<path d="M23.9999 6.11025H18.3157V18.7418H23.9999V6.11025Z" fill="#FBBC04"/>
<path d="M18.3159 18.7418H5.68433V24.426H18.3159V18.7418Z" fill="#34A853"/>
<path d="M0 18.7418V22.5313C0 23.5781 0.847895 24.426 1.89474 24.426H5.68421V18.7418H0Z" fill="#188038"/>
<path d="M23.9999 6.11025V2.32078C23.9999 1.27394 23.152 0.426041 22.1051 0.426041H18.3157V6.11025H23.9999Z" fill="#1967D2"/>
<path d="M18.3158 0.426041H1.89474C0.847895 0.426041 0 1.27394 0 2.32078V18.7418H5.68421V6.11025H18.3158V0.426041Z" fill="#4285F4"/>
<path d="M8.27522 15.9092C7.80312 15.5902 7.47627 15.1245 7.29785 14.5087L8.39364 14.0571C8.49312 14.436 8.6668 14.7297 8.91469 14.9381C9.16101 15.1466 9.46101 15.2492 9.81154 15.2492C10.17 15.2492 10.4779 15.1402 10.7352 14.9224C10.9926 14.7045 11.1221 14.4266 11.1221 14.0902C11.1221 13.746 10.9863 13.465 10.7147 13.2471C10.4431 13.0292 10.1021 12.9202 9.69469 12.9202H9.06154V11.8355H9.62996C9.98048 11.8355 10.2757 11.7408 10.5157 11.5513C10.7557 11.3618 10.8757 11.1029 10.8757 10.7729C10.8757 10.4792 10.7684 10.2455 10.5536 10.0702C10.3389 9.89499 10.0673 9.80657 9.73733 9.80657C9.41522 9.80657 9.15943 9.89183 8.96996 10.0639C8.78061 10.2365 8.63825 10.4544 8.55627 10.6971L7.47154 10.2455C7.61522 9.83814 7.8789 9.47814 8.26575 9.16709C8.65259 8.85604 9.1468 8.69972 9.7468 8.69972C10.1905 8.69972 10.59 8.78499 10.9436 8.95709C11.2973 9.1292 11.5752 9.36762 11.7757 9.67078C11.9763 9.97551 12.0757 10.3166 12.0757 10.6955C12.0757 11.0824 11.9826 11.4092 11.7963 11.6776C11.61 11.946 11.381 12.1513 11.1094 12.295V12.3597C11.4601 12.5043 11.7647 12.7418 11.9905 13.0466C12.2194 13.3545 12.3347 13.7224 12.3347 14.1518C12.3347 14.5813 12.2257 14.965 12.0078 15.3013C11.79 15.6376 11.4884 15.9029 11.1063 16.0955C10.7226 16.2881 10.2915 16.386 9.81311 16.386C9.2589 16.3876 8.74733 16.2281 8.27522 15.9092V15.9092ZM15.0063 10.4713L13.8031 11.3413L13.2015 10.4287L15.36 8.87183H16.1873V16.2155H15.0063V10.4713Z" fill="#4285F4"/>
</g>
<defs>
<clipPath id="clip0_929_2358">
<rect width="24" height="24" fill="white" transform="translate(0 0.426041)"/>
</clipPath>
</defs>
</svg>
