<svg width="25" height="25" viewBox="0 0 25 25" fill="none" xmlns="http://www.w3.org/2000/svg">
<path fill-rule="evenodd" clip-rule="evenodd" d="M21.8376 0.426041H3.53973C1.96561 0.426041 0.688935 1.70182 0.686791 3.27695V21.5597C0.683747 22.3189 0.982967 23.048 1.51833 23.5858C2.05369 24.1237 2.78109 24.426 3.53973 24.426H21.8376C22.5956 24.425 23.322 24.1222 23.8566 23.5845C24.3911 23.0467 24.6898 22.3182 24.6867 21.5597V3.27695C24.6846 1.70332 23.4103 0.42816 21.8376 0.426041V0.426041ZM11.0373 17.7123C11.0363 17.9661 10.9343 18.209 10.7539 18.3873C10.5736 18.5656 10.3296 18.6647 10.0761 18.6627H6.07737C5.55437 18.6605 5.13153 18.2357 5.13153 17.7123V5.80469C5.13153 5.28135 5.55437 4.8565 6.07737 4.85438H10.0761C10.5997 4.85649 11.0237 5.28072 11.0258 5.80469L11.0373 17.7123ZM20.2651 12.2452C20.2651 12.4993 20.1635 12.7427 19.9829 12.9213C19.8023 13.0998 19.5577 13.1986 19.3039 13.1956H15.3051C14.7815 13.1934 14.3576 12.7692 14.3555 12.2452V5.80469C14.3576 5.28072 14.7815 4.85649 15.3051 4.85438H19.3039C19.8269 4.8565 20.2497 5.28135 20.2497 5.80469L20.2651 12.2452Z" fill="url(#paint0_linear_929_2373)"/>
<defs>
<linearGradient id="paint0_linear_929_2373" x1="12.6983" y1="24.426" x2="12.6983" y2="0.426041" gradientUnits="userSpaceOnUse">
<stop stop-color="#0052CC"/>
<stop offset="1" stop-color="#2684FF"/>
</linearGradient>
</defs>
</svg>
